<?xml version="1.0" standalone="no"?><!DOCTYPE svg PUBLIC "-//W3C//DTD SVG 1.1//EN" "http://www.w3.org/Graphics/SVG/1.1/DTD/svg11.dtd"><svg class="icon" width="200px" height="200.00px" viewBox="0 0 1024 1024" version="1.1" xmlns="http://www.w3.org/2000/svg"><path fill="#8192b4" d="M495.6 772.8c-131.1-8.3-236.4-113.4-244.8-244.5-9.8-152.1 111.4-279 261.6-279 144.4 0 261.9 117.5 261.9 261.8 0.1 150.2-126.7 271.2-278.7 261.7z m16.8-479.7c-122 0-221 100.4-218.3 222.8 2.5 116.5 97.3 211.2 213.8 213.5 122.3 2.5 222.7-96.4 222.7-218.3 0-120.2-97.9-218-218.2-218zM864.6 378h-9.4c-3.5 0-6.7-2.1-8.1-5.4-1.3-3.3-0.6-7 1.9-9.5l12.9-12.9c16.4-16.4 25.4-38.3 25.4-61.5 0-23.2-9-45.1-25.4-61.4l-65.5-65.6c-16.4-16.4-38.2-25.4-61.4-25.4-23.2 0-45 9-61.4 25.4l-12.9 12.9c-2.5 2.5-6.3 3.3-9.5 1.9-3.3-1.4-5.4-4.5-5.4-8.1v-9.5c0-52.8-42.8-95.6-95.6-95.6H475c-52.8 0-95.6 42.8-95.6 95.6v9.5c0 3.5-2.1 6.7-5.4 8.1h-0.1c-3.3 1.4-7 0.6-9.5-1.9l-12.9-12.9c-16.4-16.4-38.3-25.4-61.4-25.4-23.2 0-45 9-61.4 25.4l-65.5 65.6c-16.4 16.4-25.4 38.2-25.4 61.4 0 23.3 9 45.1 25.4 61.5l12.9 12.9c2.5 2.5 3.2 6.2 1.9 9.5-1.3 3.3-4.5 5.4-8.1 5.4H160c-52.8 0-95.7 42.8-95.7 95.7v75.2c0 52.9 42.8 95.7 95.7 95.7h9.4c3.5 0 6.7 2.1 8.1 5.4 1.3 3.3 0.6 7-1.9 9.5l-12.9 12.9c-16.4 16.4-25.4 38.2-25.4 61.5 0 23.2 9 45.1 25.4 61.5l65.5 65.5c16.4 16.4 38.2 25.4 61.4 25.4 23.2 0 45.1-9 61.4-25.4l12.9-12.9c2.5-2.5 6.3-3.2 9.5-1.9h0.1c3.3 1.4 5.4 4.5 5.4 8.1v9.5c0 52.8 42.8 95.6 95.6 95.6h75.2c52.8 0 95.6-42.8 95.6-95.6v-9.5c0-3.5 2.1-6.7 5.4-8.1 3.3-1.3 7-0.6 9.5 1.9l12.9 12.9c16.4 16.4 38.2 25.4 61.4 25.4 23.2 0 45-9 61.4-25.4l65.6-65.6c16.4-16.4 25.4-38.2 25.4-61.5 0-23.2-9-45.1-25.4-61.5L849 659.5c-2.5-2.5-3.2-6.3-1.9-9.5 1.4-3.3 4.5-5.4 8.1-5.4h9.5c52.8 0 95.7-42.8 95.7-95.7v-75.2c-0.1-52.8-42.9-95.7-95.8-95.7z m51.9 170.9c0 28.7-23.2 51.9-51.9 51.9h-40c-3.7 0-7 2.4-8.3 5.9l-3.1 8.9c-4.1 11.8-8.9 23.6-14.5 35l-4.1 8.4c-1.6 3.3-0.9 7.4 1.7 10l34.4 34.4c8.1 8.1 12.6 19 12.6 30.5s-4.5 22.4-12.6 30.5l-65.5 65.5c-8.1 8.1-19 12.6-30.5 12.6s-22.4-4.5-30.5-12.6L670 795.5c-2.6-2.6-6.6-3.3-10-1.7l-8.4 4.1c-11.2 5.5-23 10.3-35 14.4l-8.9 3.1c-3.5 1.2-5.9 4.5-5.9 8.3v48.7c0 23.8-19.4 43.1-43.1 43.1h-83.9c-28.6 0-51.9-23.2-51.9-51.9v-40c0-3.7-2.4-7.1-5.9-8.3l-8.9-3.1c-11.9-4.1-23.6-9-35-14.5l-8.4-4.1c-3.4-1.6-7.4-1-10 1.7l-34.4 34.5c-8.1 8.1-18.9 12.6-30.5 12.6-11.5 0-22.4-4.5-30.5-12.6l-65.5-65.5c-8.1-8.1-12.6-19-12.6-30.5 0-11.6 4.5-22.4 12.6-30.5l34.4-34.5c2.6-2.6 3.3-6.7 1.7-10l-4.1-8.4c-5.5-11.2-10.3-23-14.4-34.9l-3.1-8.9c-1.2-3.5-4.5-5.9-8.3-5.9h-40c-28.7 0-51.9-23.2-51.9-51.9v-75.2c0-28.7 23.2-51.9 51.9-51.9h40c3.7 0 7.1-2.4 8.3-5.9l3.1-8.9c4.2-12.1 9-23.8 14.4-34.9l4.1-8.4c1.6-3.4 1-7.4-1.7-10l-34.4-34.5c-8.1-8.1-12.6-19-12.6-30.5s4.5-22.3 12.6-30.5l65.5-65.6c8.1-8.1 19-12.6 30.5-12.6s22.4 4.5 30.5 12.6l34.4 34.5c2.6 2.6 6.7 3.3 10 1.7l8.4-4.1c11.3-5.5 23.1-10.4 35-14.5l8.9-3.1c3.5-1.2 5.9-4.5 5.9-8.3v-40c0-28.6 23.2-51.9 51.9-51.9H550c28.6 0 51.9 23.2 51.9 51.9v40c0 3.7 2.4 7.1 5.9 8.3l8.9 3c11.8 4 23.5 8.9 35 14.4l8.4 4.1c3.4 1.6 7.4 0.9 10-1.7l34.4-34.4c8.1-8.1 19-12.6 30.5-12.6s22.4 4.5 30.5 12.6l65.5 65.5c8.1 8.1 12.6 18.9 12.6 30.5 0 11.5-4.5 22.4-12.6 30.5l-34.4 34.4c-2.6 2.6-3.3 6.6-1.7 10l4.1 8.4c5.5 11.2 10.3 23 14.4 35l3.1 8.9c1.2 3.5 4.5 5.9 8.3 5.9h40c28.7 0 51.9 23.2 51.9 51.9v75.5z" /></svg>